<mxfile host="app.diagrams.net" modified="2023-09-07T18:09:29.883Z" agent="Mozilla/5.0 (Windows NT 10.0; Win64; x64) AppleWebKit/537.36 (KHTML, like Gecko) Chrome/116.0.0.0 Safari/537.36" etag="_86pQ_aua5ZJwgzpPLQ-" version="21.1.7" type="device">
  <diagram name="Page-1" id="eSGPz2PkQ68OlhfAAy5j">
    <mxGraphModel dx="2021" dy="728" grid="1" gridSize="10" guides="1" tooltips="1" connect="1" arrows="1" fold="1" page="1" pageScale="1" pageWidth="827" pageHeight="1169" math="0" shadow="0">
      <root>
        <mxCell id="0" />
        <mxCell id="1" parent="0" />
        <mxCell id="yu2YrN1lCY7kf-JPa3mP-1" value=" &lt;p style=&quot;font-size: 31px;&quot;&gt;x&lt;sub&gt;0&lt;/sub&gt;&lt;/p&gt;" style="ellipse;whiteSpace=wrap;html=1;aspect=fixed;" parent="1" vertex="1">
          <mxGeometry x="170" y="190" width="80" height="80" as="geometry" />
        </mxCell>
        <mxCell id="yu2YrN1lCY7kf-JPa3mP-67" style="rounded=0;orthogonalLoop=1;jettySize=auto;html=1;targetPerimeterSpacing=6;sourcePerimeterSpacing=6;" parent="1" source="yu2YrN1lCY7kf-JPa3mP-3" target="yu2YrN1lCY7kf-JPa3mP-51" edge="1">
          <mxGeometry relative="1" as="geometry" />
        </mxCell>
        <mxCell id="yu2YrN1lCY7kf-JPa3mP-3" value="&lt;font style=&quot;font-size: 31px;&quot;&gt;y&lt;sub&gt;1&lt;/sub&gt;&lt;/font&gt;" style="ellipse;whiteSpace=wrap;html=1;aspect=fixed;" parent="1" vertex="1">
          <mxGeometry x="359" y="370" width="80" height="80" as="geometry" />
        </mxCell>
        <mxCell id="yu2YrN1lCY7kf-JPa3mP-66" style="rounded=0;orthogonalLoop=1;jettySize=auto;html=1;targetPerimeterSpacing=6;sourcePerimeterSpacing=6;" parent="1" source="yu2YrN1lCY7kf-JPa3mP-12" target="yu2YrN1lCY7kf-JPa3mP-42" edge="1">
          <mxGeometry relative="1" as="geometry" />
        </mxCell>
        <mxCell id="yu2YrN1lCY7kf-JPa3mP-12" value="&lt;font style=&quot;font-size: 31px;&quot;&gt;y&lt;sub&gt;0&lt;/sub&gt;&lt;/font&gt;" style="ellipse;whiteSpace=wrap;html=1;aspect=fixed;" parent="1" vertex="1">
          <mxGeometry x="229" y="370" width="80" height="80" as="geometry" />
        </mxCell>
        <mxCell id="yu2YrN1lCY7kf-JPa3mP-20" value="" style="ellipse;whiteSpace=wrap;html=1;aspect=fixed;" parent="1" vertex="1">
          <mxGeometry x="219.5" y="300" width="30" height="30" as="geometry" />
        </mxCell>
        <mxCell id="yu2YrN1lCY7kf-JPa3mP-24" value="" style="ellipse;whiteSpace=wrap;html=1;aspect=fixed;" parent="1" vertex="1">
          <mxGeometry x="259.5" y="300" width="30" height="30" as="geometry" />
        </mxCell>
        <mxCell id="yu2YrN1lCY7kf-JPa3mP-25" value="" style="ellipse;whiteSpace=wrap;html=1;aspect=fixed;" parent="1" vertex="1">
          <mxGeometry x="298.5" y="300" width="30" height="30" as="geometry" />
        </mxCell>
        <mxCell id="yu2YrN1lCY7kf-JPa3mP-26" value="" style="ellipse;whiteSpace=wrap;html=1;aspect=fixed;" parent="1" vertex="1">
          <mxGeometry x="338.5" y="300" width="30" height="30" as="geometry" />
        </mxCell>
        <mxCell id="yu2YrN1lCY7kf-JPa3mP-27" value="" style="ellipse;whiteSpace=wrap;html=1;aspect=fixed;" parent="1" vertex="1">
          <mxGeometry x="378.5" y="300" width="30" height="30" as="geometry" />
        </mxCell>
        <mxCell id="yu2YrN1lCY7kf-JPa3mP-28" value="" style="ellipse;whiteSpace=wrap;html=1;aspect=fixed;" parent="1" vertex="1">
          <mxGeometry x="418.5" y="300" width="30" height="30" as="geometry" />
        </mxCell>
        <mxCell id="yu2YrN1lCY7kf-JPa3mP-29" value=" &lt;p style=&quot;&quot;&gt;&lt;span style=&quot;font-size: 31px;&quot;&gt;x&lt;/span&gt;&lt;span style=&quot;font-size: 21.5278px;&quot;&gt;&lt;sub&gt;1&lt;/sub&gt;&lt;/span&gt;&lt;/p&gt;" style="ellipse;whiteSpace=wrap;html=1;aspect=fixed;" parent="1" vertex="1">
          <mxGeometry x="289.5" y="190" width="80" height="80" as="geometry" />
        </mxCell>
        <mxCell id="yu2YrN1lCY7kf-JPa3mP-30" value=" &lt;p style=&quot;&quot;&gt;&lt;span style=&quot;font-size: 31px;&quot;&gt;x&lt;/span&gt;&lt;span style=&quot;font-size: 17.9398px;&quot;&gt;&lt;sub&gt;2&lt;/sub&gt;&lt;/span&gt;&lt;/p&gt;" style="ellipse;whiteSpace=wrap;html=1;aspect=fixed;" parent="1" vertex="1">
          <mxGeometry x="408.5" y="190" width="80" height="80" as="geometry" />
        </mxCell>
        <mxCell id="yu2YrN1lCY7kf-JPa3mP-31" value=" &lt;p style=&quot;&quot;&gt;&lt;span style=&quot;font-size: 31px;&quot;&gt;x&lt;/span&gt;&lt;span style=&quot;font-size: 21.5278px;&quot;&gt;&lt;sub&gt;3&lt;/sub&gt;&lt;/span&gt;&lt;/p&gt;" style="ellipse;whiteSpace=wrap;html=1;aspect=fixed;" parent="1" vertex="1">
          <mxGeometry x="527.5" y="185" width="80" height="80" as="geometry" />
        </mxCell>
        <mxCell id="yu2YrN1lCY7kf-JPa3mP-68" style="rounded=0;orthogonalLoop=1;jettySize=auto;html=1;targetPerimeterSpacing=6;sourcePerimeterSpacing=6;" parent="1" source="yu2YrN1lCY7kf-JPa3mP-33" target="yu2YrN1lCY7kf-JPa3mP-52" edge="1">
          <mxGeometry relative="1" as="geometry" />
        </mxCell>
        <mxCell id="yu2YrN1lCY7kf-JPa3mP-33" value="&lt;font style=&quot;font-size: 31px;&quot;&gt;y&lt;/font&gt;&lt;font style=&quot;font-size: 25.8333px;&quot;&gt;&lt;sub&gt;2&lt;/sub&gt;&lt;/font&gt;" style="ellipse;whiteSpace=wrap;html=1;aspect=fixed;" parent="1" vertex="1">
          <mxGeometry x="586.5" y="365" width="80" height="80" as="geometry" />
        </mxCell>
        <mxCell id="yu2YrN1lCY7kf-JPa3mP-34" value="" style="ellipse;whiteSpace=wrap;html=1;aspect=fixed;" parent="1" vertex="1">
          <mxGeometry x="577" y="295" width="30" height="30" as="geometry" />
        </mxCell>
        <mxCell id="yu2YrN1lCY7kf-JPa3mP-35" value="" style="ellipse;whiteSpace=wrap;html=1;aspect=fixed;" parent="1" vertex="1">
          <mxGeometry x="617" y="295" width="30" height="30" as="geometry" />
        </mxCell>
        <mxCell id="yu2YrN1lCY7kf-JPa3mP-36" value="" style="ellipse;whiteSpace=wrap;html=1;aspect=fixed;" parent="1" vertex="1">
          <mxGeometry x="656" y="295" width="30" height="30" as="geometry" />
        </mxCell>
        <mxCell id="yu2YrN1lCY7kf-JPa3mP-40" value=" &lt;p style=&quot;&quot;&gt;&lt;span style=&quot;font-size: 31px;&quot;&gt;x&lt;/span&gt;&lt;span style=&quot;font-size: 17.9398px;&quot;&gt;&lt;sub&gt;4&lt;/sub&gt;&lt;/span&gt;&lt;/p&gt;" style="ellipse;whiteSpace=wrap;html=1;aspect=fixed;" parent="1" vertex="1">
          <mxGeometry x="647" y="185" width="80" height="80" as="geometry" />
        </mxCell>
        <mxCell id="yu2YrN1lCY7kf-JPa3mP-42" value=" &lt;p style=&quot;&quot;&gt;&lt;sub style=&quot;&quot;&gt;&lt;span style=&quot;font-size: 31px;&quot;&gt;y&lt;/span&gt;&lt;span style=&quot;font-size: 25.8333px;&quot;&gt;&lt;sub&gt;0&lt;/sub&gt;&lt;/span&gt;&lt;/sub&gt;&lt;/p&gt;" style="ellipse;whiteSpace=wrap;html=1;aspect=fixed;" parent="1" vertex="1">
          <mxGeometry x="309" y="520" width="80" height="80" as="geometry" />
        </mxCell>
        <mxCell id="yu2YrN1lCY7kf-JPa3mP-44" value="&lt;span style=&quot;font-size: 31px;&quot;&gt;z&lt;/span&gt;" style="ellipse;whiteSpace=wrap;html=1;aspect=fixed;" parent="1" vertex="1">
          <mxGeometry x="427.5" y="700" width="80" height="80" as="geometry" />
        </mxCell>
        <mxCell id="yu2YrN1lCY7kf-JPa3mP-45" value="" style="ellipse;whiteSpace=wrap;html=1;aspect=fixed;" parent="1" vertex="1">
          <mxGeometry x="358.5" y="630" width="30" height="30" as="geometry" />
        </mxCell>
        <mxCell id="yu2YrN1lCY7kf-JPa3mP-46" value="" style="ellipse;whiteSpace=wrap;html=1;aspect=fixed;" parent="1" vertex="1">
          <mxGeometry x="398.5" y="630" width="30" height="30" as="geometry" />
        </mxCell>
        <mxCell id="yu2YrN1lCY7kf-JPa3mP-47" value="" style="ellipse;whiteSpace=wrap;html=1;aspect=fixed;" parent="1" vertex="1">
          <mxGeometry x="437.5" y="630" width="30" height="30" as="geometry" />
        </mxCell>
        <mxCell id="yu2YrN1lCY7kf-JPa3mP-48" value="" style="ellipse;whiteSpace=wrap;html=1;aspect=fixed;" parent="1" vertex="1">
          <mxGeometry x="477.5" y="630" width="30" height="30" as="geometry" />
        </mxCell>
        <mxCell id="yu2YrN1lCY7kf-JPa3mP-49" value="" style="ellipse;whiteSpace=wrap;html=1;aspect=fixed;" parent="1" vertex="1">
          <mxGeometry x="517.5" y="630" width="30" height="30" as="geometry" />
        </mxCell>
        <mxCell id="yu2YrN1lCY7kf-JPa3mP-50" value="" style="ellipse;whiteSpace=wrap;html=1;aspect=fixed;" parent="1" vertex="1">
          <mxGeometry x="557.5" y="630" width="30" height="30" as="geometry" />
        </mxCell>
        <mxCell id="yu2YrN1lCY7kf-JPa3mP-51" value=" &lt;p style=&quot;&quot;&gt;&lt;span style=&quot;font-size: 31px;&quot;&gt;y&lt;sub&gt;1&lt;/sub&gt;&lt;/span&gt;&lt;/p&gt;" style="ellipse;whiteSpace=wrap;html=1;aspect=fixed;" parent="1" vertex="1">
          <mxGeometry x="428.5" y="520" width="80" height="80" as="geometry" />
        </mxCell>
        <mxCell id="yu2YrN1lCY7kf-JPa3mP-52" value=" &lt;p style=&quot;&quot;&gt;&lt;span style=&quot;font-size: 31px;&quot;&gt;y&lt;sub&gt;2&lt;/sub&gt;&lt;/span&gt;&lt;/p&gt;" style="ellipse;whiteSpace=wrap;html=1;aspect=fixed;" parent="1" vertex="1">
          <mxGeometry x="547.5" y="520" width="80" height="80" as="geometry" />
        </mxCell>
        <mxCell id="yu2YrN1lCY7kf-JPa3mP-54" value="" style="endArrow=none;html=1;rounded=0;strokeWidth=3;" parent="1" edge="1">
          <mxGeometry width="50" height="50" relative="1" as="geometry">
            <mxPoint x="510" y="445" as="sourcePoint" />
            <mxPoint x="510" y="185" as="targetPoint" />
          </mxGeometry>
        </mxCell>
        <mxCell id="yu2YrN1lCY7kf-JPa3mP-58" value="" style="shape=curlyBracket;whiteSpace=wrap;html=1;rounded=1;labelPosition=left;verticalLabelPosition=middle;align=right;verticalAlign=middle;rotation=90;" parent="1" vertex="1">
          <mxGeometry x="298.5" y="-15" width="45.5" height="340" as="geometry" />
        </mxCell>
        <mxCell id="yu2YrN1lCY7kf-JPa3mP-59" value="&lt;font style=&quot;font-size: 25px;&quot;&gt;Réseau 1&lt;/font&gt;" style="text;html=1;align=center;verticalAlign=middle;resizable=0;points=[];autosize=1;strokeColor=none;fillColor=none;" parent="1" vertex="1">
          <mxGeometry x="256.25" y="85" width="130" height="40" as="geometry" />
        </mxCell>
        <mxCell id="yu2YrN1lCY7kf-JPa3mP-61" value="" style="shape=curlyBracket;whiteSpace=wrap;html=1;rounded=1;labelPosition=left;verticalLabelPosition=middle;align=right;verticalAlign=middle;rotation=90;" parent="1" vertex="1">
          <mxGeometry x="298.5" y="-15" width="45.5" height="340" as="geometry" />
        </mxCell>
        <mxCell id="yu2YrN1lCY7kf-JPa3mP-62" value="&lt;font style=&quot;font-size: 25px;&quot;&gt;Réseau 2&lt;/font&gt;" style="text;html=1;align=center;verticalAlign=middle;resizable=0;points=[];autosize=1;strokeColor=none;fillColor=none;" parent="1" vertex="1">
          <mxGeometry x="567" y="85" width="130" height="40" as="geometry" />
        </mxCell>
        <mxCell id="yu2YrN1lCY7kf-JPa3mP-63" value="" style="shape=curlyBracket;whiteSpace=wrap;html=1;rounded=1;labelPosition=left;verticalLabelPosition=middle;align=right;verticalAlign=middle;rotation=-180;" parent="1" vertex="1">
          <mxGeometry x="666.5" y="500" width="45.5" height="295" as="geometry" />
        </mxCell>
        <mxCell id="yu2YrN1lCY7kf-JPa3mP-64" value="&lt;font style=&quot;font-size: 25px;&quot;&gt;Réseau 3&lt;/font&gt;" style="text;html=1;align=center;verticalAlign=middle;resizable=0;points=[];autosize=1;strokeColor=none;fillColor=none;" parent="1" vertex="1">
          <mxGeometry x="727" y="625" width="130" height="40" as="geometry" />
        </mxCell>
        <mxCell id="yu2YrN1lCY7kf-JPa3mP-65" value="" style="shape=curlyBracket;whiteSpace=wrap;html=1;rounded=1;labelPosition=left;verticalLabelPosition=middle;align=right;verticalAlign=middle;rotation=90;" parent="1" vertex="1">
          <mxGeometry x="608.25" y="47.5" width="45.5" height="215" as="geometry" />
        </mxCell>
        <mxCell id="yu2YrN1lCY7kf-JPa3mP-69" value="&lt;font style=&quot;font-size: 25px;&quot;&gt;Résultat / Prédiction :&lt;/font&gt;" style="text;html=1;align=center;verticalAlign=middle;resizable=0;points=[];autosize=1;strokeColor=none;fillColor=none;" parent="1" vertex="1">
          <mxGeometry x="148.5" y="720" width="260" height="40" as="geometry" />
        </mxCell>
        <mxCell id="yu2YrN1lCY7kf-JPa3mP-70" value="&lt;font style=&quot;font-size: 21px;&quot;&gt;Données d&#39;entrée :&lt;/font&gt;" style="text;html=1;align=center;verticalAlign=middle;resizable=0;points=[];autosize=1;strokeColor=none;fillColor=none;" parent="1" vertex="1">
          <mxGeometry x="-60" y="205" width="200" height="40" as="geometry" />
        </mxCell>
      </root>
    </mxGraphModel>
  </diagram>
</mxfile>
